<svg width="584" height="135" viewBox="0 0 584 135" fill="none" xmlns="http://www.w3.org/2000/svg">
<rect width="584" height="135" rx="30" fill="#FCF99C"/>
<path d="M29 108V28H47.7C57.1667 28 64.2 31.3 68.8 37.9C73.4 44.4333 75.7 54.4667 75.7 68C75.7 81.5333 73.4 91.6 68.8 98.2C64.2 104.733 57.1667 108 47.7 108H29ZM39 98.7H47.7C53.9 98.7 58.4667 96.2333 61.4 91.3C64.3333 86.3667 65.8 78.6 65.8 68C65.8 57.3333 64.3333 49.5667 61.4 44.7C58.4667 39.7667 53.9 37.3 47.7 37.3H39V98.7ZM93.4117 108V28H133.312V37.3H103.312V63.3H128.312V72.1H103.312V98.7H132.312V108H93.4117ZM151.723 108V28H169.623C177.29 28 183.323 29.9 187.723 33.7C192.19 37.5 194.423 42.7667 194.423 49.5C194.423 53.5 193.357 57 191.223 60C189.09 62.9333 186.157 64.9333 182.423 66V67.6C186.557 68.9333 189.79 71.2667 192.123 74.6C194.457 77.9333 195.623 81.8667 195.623 86.4C195.623 93.1333 193.323 98.4333 188.723 102.3C184.123 106.1 177.757 108 169.623 108H151.723ZM161.723 98.8H169.623C174.823 98.8 178.79 97.6333 181.523 95.3C184.323 92.9667 185.723 89.6667 185.723 85.4C185.723 81.1333 184.323 77.8333 181.523 75.5C178.79 73.1 174.823 71.9 169.623 71.9H161.723V98.8ZM161.723 63.2H169.623C174.557 63.2 178.323 62.1 180.923 59.9C183.59 57.6333 184.923 54.4333 184.923 50.3C184.923 46.1 183.59 42.8667 180.923 40.6C178.323 38.3333 174.557 37.2 169.623 37.2H161.723V63.2ZM208.435 28H218.335V84C218.335 89.1333 219.468 93.1333 221.735 96C224.002 98.8667 227.168 100.3 231.235 100.3C235.235 100.3 238.368 98.8667 240.635 96C242.902 93.1333 244.035 89.1333 244.035 84V28H253.635V84.8C253.635 92.7333 251.668 98.8333 247.735 103.1C243.868 107.367 238.302 109.5 231.035 109.5C223.768 109.5 218.168 107.367 214.235 103.1C210.368 98.8333 208.435 92.7333 208.435 84.8V28ZM289.347 109.2C282.414 109.2 277.014 105.767 273.147 98.9C269.28 92.0333 267.347 81.7333 267.347 68C267.347 53.9333 269.38 43.5 273.447 36.7C277.58 29.9 283.88 26.5 292.347 26.5C296.947 26.5 300.847 27.5 304.047 29.5C307.247 31.5 309.747 34.4667 311.547 38.4C313.414 42.3333 314.514 47.2333 314.847 53.1H305.847C305.047 47.1 303.547 42.7 301.347 39.9C299.214 37.1 296.214 35.7 292.347 35.7C287.147 35.7 283.347 38.3 280.947 43.5C278.547 48.6333 277.347 56.8 277.347 68C277.347 79.3333 278.547 87.6333 280.947 92.9C283.347 98.1 287.147 100.7 292.347 100.7C294.814 100.7 297.014 99.7 298.947 97.7C300.947 95.7 302.514 92.9667 303.647 89.5C304.78 86.0333 305.347 82.0667 305.347 77.6H291.547V68.6H313.347V108H305.347V102.1H302.547C301.48 104.433 299.814 106.2 297.547 107.4C295.347 108.6 292.614 109.2 289.347 109.2ZM412.37 109.5C404.237 109.5 398.204 106.1 394.27 99.3C390.337 92.5 388.37 82.0667 388.37 68C388.37 53.9333 390.404 43.5 394.47 36.7C398.537 29.9 404.77 26.5 413.17 26.5C417.837 26.5 421.804 27.5667 425.07 29.7C428.337 31.8333 430.87 35.0333 432.67 39.3C434.537 43.5 435.637 48.7667 435.97 55.1H426.97C426.17 48.4333 424.637 43.5333 422.37 40.4C420.17 37.2667 417.104 35.7 413.17 35.7C408.104 35.7 404.37 38.3 401.97 43.5C399.57 48.6333 398.37 56.8 398.37 68C398.37 79.2 399.47 87.4 401.67 92.6C403.937 97.7333 407.504 100.3 412.37 100.3C416.104 100.3 419.037 98.8667 421.17 96C423.304 93.0667 424.77 88.5667 425.57 82.5H434.57C434.237 88.3667 433.17 93.3333 431.37 97.4C429.57 101.4 427.07 104.433 423.87 106.5C420.67 108.5 416.837 109.5 412.37 109.5ZM458.082 87.6C458.949 91.8 460.515 94.9667 462.782 97.1C465.115 99.2333 468.215 100.3 472.082 100.3C475.949 100.3 478.982 99.0667 481.182 96.6C483.382 94.0667 484.482 90.6 484.482 86.2C484.482 83 483.549 80.3333 481.682 78.2C479.882 76 477.349 74.5667 474.082 73.9L467.982 72.4C461.982 71 457.415 68.4 454.282 64.6C451.215 60.8 449.682 55.9 449.682 49.9C449.682 45.0333 450.615 40.8667 452.482 37.4C454.415 33.8667 457.115 31.1667 460.582 29.3C464.049 27.4333 468.115 26.5 472.782 26.5C477.449 26.5 481.449 27.4333 484.782 29.3C488.115 31.1667 490.715 33.9 492.582 37.5C494.515 41.0333 495.582 45.3333 495.782 50.4H486.782C485.849 45.5333 484.249 41.8667 481.982 39.4C479.715 36.9333 476.649 35.7 472.782 35.7C468.649 35.7 465.382 36.9667 462.982 39.5C460.649 41.9667 459.482 45.4333 459.482 49.9C459.482 53.0333 460.415 55.7 462.282 57.9C464.149 60.1 466.682 61.5667 469.882 62.3L476.082 63.8C482.082 65.2 486.615 67.8 489.682 71.6C492.749 75.4 494.282 80.2667 494.282 86.2C494.282 91 493.382 95.1667 491.582 98.7C489.782 102.167 487.215 104.833 483.882 106.7C480.549 108.567 476.615 109.5 472.082 109.5C467.349 109.5 463.282 108.633 459.882 106.9C456.482 105.167 453.849 102.667 451.982 99.4C450.115 96.1333 449.082 92.2 448.882 87.6H458.082ZM518.094 87.6C518.96 91.8 520.527 94.9667 522.794 97.1C525.127 99.2333 528.227 100.3 532.094 100.3C535.96 100.3 538.994 99.0667 541.194 96.6C543.394 94.0667 544.494 90.6 544.494 86.2C544.494 83 543.56 80.3333 541.694 78.2C539.894 76 537.36 74.5667 534.094 73.9L527.994 72.4C521.994 71 517.427 68.4 514.294 64.6C511.227 60.8 509.694 55.9 509.694 49.9C509.694 45.0333 510.627 40.8667 512.494 37.4C514.427 33.8667 517.127 31.1667 520.594 29.3C524.06 27.4333 528.127 26.5 532.794 26.5C537.46 26.5 541.46 27.4333 544.794 29.3C548.127 31.1667 550.727 33.9 552.594 37.5C554.527 41.0333 555.594 45.3333 555.794 50.4H546.794C545.86 45.5333 544.26 41.8667 541.994 39.4C539.727 36.9333 536.66 35.7 532.794 35.7C528.66 35.7 525.394 36.9667 522.994 39.5C520.66 41.9667 519.494 45.4333 519.494 49.9C519.494 53.0333 520.427 55.7 522.294 57.9C524.16 60.1 526.694 61.5667 529.894 62.3L536.094 63.8C542.094 65.2 546.627 67.8 549.694 71.6C552.76 75.4 554.294 80.2667 554.294 86.2C554.294 91 553.394 95.1667 551.594 98.7C549.794 102.167 547.227 104.833 543.894 106.7C540.56 108.567 536.627 109.5 532.094 109.5C527.36 109.5 523.294 108.633 519.894 106.9C516.494 105.167 513.86 102.667 511.994 99.4C510.127 96.1333 509.094 92.2 508.894 87.6H518.094Z" fill="#FF551F"/>
</svg>
